<?xml version="1.0" standalone="yes"?>

<svg version="1.1" viewBox="0.0 0.0 148.13910761154855 146.86614173228347" fill="none" stroke="none" stroke-linecap="square" stroke-miterlimit="10" xmlns="http://www.w3.org/2000/svg" xmlns:xlink="http://www.w3.org/1999/xlink"><clipPath id="p.0"><path d="m0 0l148.13911 0l0 146.86613l-148.13911 0l0 -146.86613z" clip-rule="nonzero"></path></clipPath><g clip-path="url(#p.0)"><path fill="#000000" fill-opacity="0.0" d="m0 0l148.13911 0l0 146.86613l-148.13911 0z" fill-rule="nonzero"></path><path fill="#95a5a6" d="m1.3910761 73.43307l0 0c0 -40.138485 32.538677 -72.67716 72.67717 -72.67716l0 0c19.275177 0 37.760902 7.6570363 51.39051 21.28665c13.629608 13.62961 21.286652 32.115334 21.286652 51.39051l0 0c0 40.138496 -32.538673 72.67716 -72.67716 72.67716l0 0c-40.138493 0 -72.67717 -32.538666 -72.67717 -72.67716z" fill-rule="nonzero"></path><path stroke="#34495e" stroke-width="1.0" stroke-linejoin="round" stroke-linecap="butt" d="m1.3910761 73.43307l0 0c0 -40.138485 32.538677 -72.67716 72.67717 -72.67716l0 0c19.275177 0 37.760902 7.6570363 51.39051 21.28665c13.629608 13.62961 21.286652 32.115334 21.286652 51.39051l0 0c0 40.138496 -32.538673 72.67716 -72.67716 72.67716l0 0c-40.138493 0 -72.67717 -32.538666 -72.67717 -72.67716z" fill-rule="nonzero"></path><path fill="#000000" fill-opacity="0.0" d="m5.135174 36.782154l100.755905 0l0 43.43307l-100.755905 0z" fill-rule="nonzero"></path><path fill="#34495e" d="m19.650799 52.279026q-3.0 0 -3.0 2.265625q0 1.25 0.6875 1.734375q0.703125 0.46875 2.8125 0.9375q2.109375 0.46875 2.984375 1.21875q0.875 0.75 0.875 2.46875q0 4.265629 -4.421875 4.265629q-1.453125 0 -3.65625 -0.34375l-0.71875 -0.109375l0.15625 -1.2812538q2.71875 0.359375 4.140625 0.359375q2.96875 0 2.96875 -2.765625q0 -1.125 -0.65625 -1.609375q-0.640625 -0.5 -2.421875 -0.84375q-2.34375 -0.5 -3.328125 -1.28125q-0.984375 -0.796875 -0.984375 -2.65625q0 -3.71875 4.46875 -3.71875q1.453125 0 3.5 0.296875l0.671875 0.109375l-0.140625 1.296875q-2.765625 -0.34375 -3.9375 -0.34375zm8.464996 8.546875q0 3.0 3.234375 3.0q1.6875 0 2.53125 -0.703125q0.859375 -0.71875 0.859375 -2.296875l0 -9.6875l1.515625 0l0 9.640625q0 2.328125 -1.234375 3.3750038q-1.234375 1.03125 -3.640625 1.03125q-2.390625 0 -3.609375 -1.03125q-1.203125 -1.0468788 -1.203125 -3.3750038l0 -9.640625l1.546875 0l0 9.6875zm12.97374 -1.140625l0 5.296879l-1.53125 0l0 -13.843754l5.109375 0q2.203125 0 3.3125 1.03125q1.109375 1.015625 1.109375 3.171875q0 3.203125 -2.53125 4.015625l2.65625 5.625004l-1.703125 0l-2.5 -5.296879l-3.921875 0zm3.609375 -1.359375q2.8125 0 2.8125 -2.90625q0 -2.921875 -2.84375 -2.921875l-3.578125 0l0 5.828125l3.609375 0zm7.179367 6.656254l0 -13.843754l8.28125 0l0 1.359375l-6.75 0l0 5.40625l5.703125 0l0 1.359375l-5.703125 0l0 5.718754l-1.53125 0zm9.301239 0l3.7968712 -13.843754l3.359375 0l3.796875 13.843754l-1.515625 0l-1.0 -3.5625038l-5.921871 0l-1.0 3.5625038l-1.515625 0zm4.953121 -12.515629l-2.09375 7.578125l5.234375 0l-2.09375 -7.578125l-1.046875 0zm16.544983 12.296879q-2.0625 0.421875 -3.703125 0.421875q-1.640625 0 -2.65625 -0.453125q-1.0 -0.453125 -1.5625 -1.3906288q-0.546875 -0.953125 -0.75 -2.1875q-0.203125 -1.234375 -0.203125 -3.0625q0 -1.84375 0.203125 -3.09375q0.203125 -1.25 0.75 -2.203125q0.5625 -0.96875 1.5625 -1.40625q1.0 -0.453125 2.59375 -0.453125q1.609375 0 3.765625 0.453125l-0.0625 1.296875q-2.015625 -0.359375 -3.59375 -0.359375q-2.203125 0 -2.921875 1.3125q-0.703125 1.296875 -0.703125 4.46875q0 1.578125 0.125 2.546875q0.140625 0.953125 0.515625 1.71875q0.375 0.765625 1.109375 1.09375q0.734375 0.328125 2.140625 0.328125q1.40625 0 3.328125 -0.359375l0.0625 1.3281288zm2.5206146 0.21875l0 -13.843754l8.421875 0l0 1.359375l-6.890625 0l0 4.78125l5.6875 0l0 1.34375l-5.6875 0l0 5.0l6.890625 0l0 1.3593788l-8.421875 0z" fill-rule="nonzero"></path><path fill="#000000" fill-opacity="0.0" d="m86.87795 57.267715l56.125984 0l0 43.433075l-56.125984 0z" fill-rule="nonzero"></path><path fill="#ecf0f1" d="m97.58108 71.62396l5.015625 0q2.0625 0 3.09375 0.859375q1.03125 0.84375 1.03125 2.671875q0 1.296875 -0.453125 2.03125q-0.453125 0.71875 -1.328125 1.140625q2.203125 0.765625 2.203125 3.265625q0 2.078125 -1.109375 2.984375q-1.09375 0.890625 -3.171875 0.890625l-5.28125 0l0 -13.84375zm5.109375 7.484375l-3.578125 0l0 5.0l3.6875 0q1.359375 0 2.0625 -0.5625q0.71875 -0.578125 0.71875 -2.015625q0 -0.765625 -0.296875 -1.28125q-0.28125 -0.515625 -0.765625 -0.734375q-0.875 -0.40625 -1.828125 -0.40625zm-0.15625 -6.125l-3.421875 0l0 4.78125l3.5625 0q1.28125 0 1.875 -0.609375q0.59375 -0.609375 0.59375 -1.828125q0 -1.234375 -0.640625 -1.78125q-0.625 -0.5625 -1.96875 -0.5625zm6.148117 12.484375l3.796875 -13.84375l3.359375 0l3.796875 13.84375l-1.515625 0l-1.0 -3.5625l-5.921875 0l-1.0 3.5625l-1.515625 0zm4.953125 -12.515625l-2.09375 7.578125l5.234375 0l-2.09375 -7.578125l-1.046875 0zm9.716858 7.21875l0 5.296875l-1.53125 0l0 -13.84375l5.109375 0q2.2031326 0 3.3125076 1.03125q1.109375 1.015625 1.109375 3.171875q0 3.203125 -2.53125 4.015625l2.65625 5.625l-1.703125 0l-2.5000076 -5.296875l-3.921875 0zm3.609375 -1.359375q2.8125076 0 2.8125076 -2.90625q0 -2.921875 -2.8437576 -2.921875l-3.578125 0l0 5.828125l3.609375 0z" fill-rule="nonzero"></path><path fill="#000000" fill-opacity="0.0" d="m27.867514 69.10236l92.81889 0" fill-rule="nonzero"></path><path stroke="#ecf0f1" stroke-width="1.0" stroke-linejoin="round" stroke-linecap="butt" d="m27.867514 69.10236l92.81889 0" fill-rule="nonzero"></path><path fill="#000000" fill-opacity="0.0" d="m27.868116 69.102l26.456694 33.637794" fill-rule="nonzero"></path><path stroke="#ecf0f1" stroke-width="1.0" stroke-linejoin="round" stroke-linecap="butt" d="m27.868116 69.102l26.456694 33.637794" fill-rule="nonzero"></path><path fill="#34495e" d="m91.63555 72.80234l23.138687 -36.355568l-21.025154 37.61737l-23.13868 36.355568z" fill-rule="nonzero"></path><path stroke="#34495e" stroke-width="1.0" stroke-linejoin="round" stroke-linecap="butt" d="m91.63555 72.80234l23.138687 -36.355568l-21.025154 37.61737l-23.13868 36.355568z" fill-rule="nonzero"></path></g></svg>

